<svg width="" height="" viewBox="0 0 18 18" fill="none" xmlns="http://www.w3.org/2000/svg">
<path fill-rule="evenodd" clip-rule="evenodd" d="M4.26748 1C2.4629 1 1 2.4629 1 4.26748V11.8024C1 13.607 2.4629 15.0699 4.26748 15.0699H11.8024C13.607 15.0699 15.0699 13.607 15.0699 11.8024V4.26748C15.0699 2.4629 13.607 1 11.8024 1H4.26748ZM0 4.26748C0 1.91062 1.91062 0 4.26748 0H11.8024C14.1593 0 16.0699 1.91062 16.0699 4.26748V11.8024C16.0699 14.1593 14.1593 16.0699 11.8024 16.0699H4.26748C1.91062 16.0699 0 14.1593 0 11.8024V4.26748ZM8.43643 5.51543C7.91337 5.43786 7.37916 5.52721 6.9098 5.77075C6.44044 6.01429 6.05983 6.39963 5.82209 6.87196C5.58436 7.34428 5.50161 7.87955 5.58562 8.40161C5.66962 8.92368 5.91611 9.40597 6.29002 9.77987C6.66392 10.1538 7.14621 10.4003 7.66827 10.4843C8.19034 10.5683 8.72561 10.4855 9.19793 10.2478C9.67026 10.0101 10.0556 9.62944 10.2991 9.16008C10.5427 8.69072 10.632 8.15652 10.5545 7.63346C10.4753 7.09991 10.2267 6.60596 9.84533 6.22456C9.46393 5.84316 8.96997 5.59454 8.43643 5.51543ZM6.44923 4.88312C7.10529 4.54271 7.85199 4.41783 8.58311 4.52624C9.32889 4.63683 10.0193 4.98435 10.5524 5.51746C11.0855 6.05056 11.4331 6.741 11.5436 7.48677C11.6521 8.2179 11.5272 8.96459 11.1868 9.62065C10.8463 10.2767 10.3077 10.8087 9.64752 11.141C8.98732 11.4733 8.23914 11.589 7.5094 11.4716C6.77967 11.3541 6.10555 11.0096 5.58291 10.487C5.06027 9.96434 4.71574 9.29022 4.59832 8.56048C4.48089 7.83075 4.59656 7.08257 4.92886 6.42237C5.26116 5.76216 5.79317 5.22354 6.44923 4.88312ZM12.1792 3.39074C11.903 3.39074 11.6792 3.6146 11.6792 3.89074C11.6792 4.16688 11.903 4.39074 12.1792 4.39074H12.1878C12.464 4.39074 12.6878 4.16688 12.6878 3.89074C12.6878 3.6146 12.464 3.39074 12.1878 3.39074H12.1792Z" fill="black"/>
</svg>
